<svg width="485" height="519" viewBox="0 0 485 519" fill="none" xmlns="http://www.w3.org/2000/svg">
<path d="M211.353 0C302.684 91.8877 395.374 182.439 484.855 276.131C476.235 286.756 466.3 296.224 456.833 306.092C397.133 366.705 336.944 426.805 276.354 486.526C265.104 497.33 254.123 508.446 242.227 518.536C197.097 475.767 153.681 431.237 109.597 387.398C72.909 350.376 35.9532 313.621 0 275.886C29.0031 243.719 60.3008 213.714 90.5732 182.773C92.7787 180.679 94.7393 178.206 97.4565 176.759C110.332 176.246 123.208 176.803 136.083 176.558C102.803 209.95 69.4561 243.252 36.1536 276.621C96.2536 336.632 155.819 397.222 216.743 456.387C225.253 464.25 233.295 472.626 242.405 479.821C259.447 465.653 274.928 449.704 290.877 434.334C343.627 382.097 395.997 329.481 448.434 276.933C413.818 239.911 377.219 204.782 341.577 168.739C298.251 125.279 254.635 82.0862 211.241 38.6708C211.308 25.7731 211.308 12.8977 211.353 0Z" fill="#EE7E01"/>
<path d="M211.398 73.9111C266.664 127.796 320.839 182.817 375.415 237.393C388.112 250.402 401.099 263.122 413.395 276.487C357.549 334.939 299.677 391.431 242.584 448.701C185.269 391.297 127.618 334.248 70.3477 276.822C98.9943 248.063 127.752 219.417 156.421 190.681C161.255 186.047 165.443 180.567 171.012 176.781C182.751 176.268 194.535 176.357 206.23 177.382C175.779 209.548 143.501 239.977 113.541 272.612C111.335 274.46 109.82 277.401 112.894 279.272C151.431 319.413 191.127 358.463 230.867 397.4C234.854 401.388 239.042 405.13 243.409 408.694C282.525 370.736 320.527 331.62 358.708 292.704C364.143 287.113 369.779 281.655 374.345 275.307C321.641 219.238 265.996 165.999 212.156 111.067C210.017 99.1049 211.888 86.2294 211.398 73.9111Z" fill="#EE7E01"/>
<path d="M159.362 260.449C186.739 232.448 213.737 204.025 242.295 177.227C275.998 208.925 308.855 241.604 340.264 275.619C308.855 309.411 276.51 342.38 243.208 374.301C218.303 351.602 194.691 327.544 170.9 303.664C162.257 294.464 152.924 285.866 145.105 275.953C149.316 270.317 154.55 265.55 159.362 260.449ZM242.295 219.302C242.295 219.302 218.972 241.96 209.126 252.118C205.339 255.593 201.82 259.335 198.634 263.367C194.335 267.822 190.169 272.433 186.516 277.445C204.961 296.068 222.714 315.537 242.518 332.69C262.254 315.248 280.364 295.957 298.519 276.889C286.645 261.964 272.901 248.665 259.425 235.211C257.465 233.428 242.295 219.302 242.295 219.302Z" fill="#EE7E01"/>
</svg>
