<svg width="108" height="115" viewBox="0 0 108 115" fill="none" xmlns="http://www.w3.org/2000/svg">
<path d="M107.725 60.6161L47.1076 0V9.30409L98.4207 60.6161L98.4404 60.6359L53.9936 105.083L53.9407 105.029L9.52298 60.6161L9.48356 60.5778L31.2889 38.7724H21.824L0 60.5964L0.0197099 60.6161L53.921 114.517L53.9407 114.498L107.774 60.6649L107.725 60.6161Z" fill="#555555"/>
<path d="M47.0888 15.7075V25.0116L82.7128 60.6356L54.0131 89.3353L25.2886 60.6159L25.2492 60.5776L47.0545 38.7722H37.5907L15.7656 60.5962L15.7853 60.6159L49.2589 94.0895L53.9405 98.7711L58.6989 94.0169L92.0459 60.6647L47.0888 15.7075Z" fill="#555555"/>
<path d="M76.3333 60.6161L58.5581 42.8212L53.8277 38.0908L49.1762 42.7423L31.3076 60.5964L49.1855 78.4743L53.8671 83.1548L58.6162 78.4006L76.382 60.6638L76.3333 60.615V60.6161ZM53.9491 73.7553L40.8109 60.6161L40.7715 60.5767L53.8754 47.4727L67.0146 60.6109L53.9491 73.7543V73.7553Z" fill="#555555"/>
</svg>
